<svg xmlns="http://www.w3.org/2000/svg" width="45.3" height="45.64" viewBox="0 0 45.3 45.64">
  <path id="Facebook" d="M1191.83,3353.49a22.418,22.418,0,0,1-16.016-6.684,22.942,22.942,0,0,1,0-32.272,22.531,22.531,0,0,1,32.032,0,22.942,22.942,0,0,1,0,32.272A22.417,22.417,0,0,1,1191.83,3353.49Zm-3.681-23.347v14.868h5.251v-14.855h3.833l.587-4.4h-4.4v-3.681c0-1.132.313-1.442,1.458-1.442h2.923v-4.407h-3.661a6.748,6.748,0,0,0-4.961,1.671,5.659,5.659,0,0,0-1.506,4.185v3.689H1184.6v4.368Z" transform="translate(-1169.18 -3307.85)" fill="#4b64a6"/>
</svg>
