<svg xmlns="http://www.w3.org/2000/svg" width="45.699" height="46.02" viewBox="0 0 45.699 46.02">
  <path id="Google_" data-name="Google +" d="M1256.46,3353.85a22.621,22.621,0,0,1-16.157-6.74,23.124,23.124,0,0,1,0-32.541,22.738,22.738,0,0,1,32.315,0,23.125,23.125,0,0,1,0,32.541A22.62,22.62,0,0,1,1256.46,3353.85Zm-5.5-24.194a3.005,3.005,0,0,0,.714,3.836l-.028,0c-2.961,0-4.521.278-5.96,1.062-.853.465-3.635,2.183-3.635,4.784a4.175,4.175,0,0,0,2.178,3.472,11.91,11.91,0,0,0,6.346,1.5,9.239,9.239,0,0,0,6.173-1.947,5.674,5.674,0,0,0,.067-8.617c-.13-.106-.29-.23-.474-.374l-.007-.006c-1-.78-2.681-2.086-2.681-2.951,0-.016,0-.033,0-.052-.007-.311-.025-1.135,1.429-2.178a5.546,5.546,0,0,0,2.52-4.509c0-1.722-.7-4.022-2.684-4.834h2.641l1.849-1.321c-.064,0-6.721-.015-8.591-.015a7.938,7.938,0,0,0-5.3,2.309,5.432,5.432,0,0,0-1.66,3.809c.231,5.759,5.494,6.051,6.547,6.051C1250.6,3329.681,1250.789,3329.673,1250.959,3329.656Zm15.733-5.164v5.077h1.278v-5.077h5.113v-1.269h-5.113v-5.077h-1.278v5.077h-5.114v1.269Zm-16.136,18.5a6.416,6.416,0,0,1-3.8-1.219,3.991,3.991,0,0,1-1.7-3.2,3.81,3.81,0,0,1,1.994-3.14,7.579,7.579,0,0,1,3.934-1.158,6.047,6.047,0,0,1,2.2.331,7.754,7.754,0,0,1,1.793,1.241c1.24,1.03,1.638,1.707,1.638,2.786a3.741,3.741,0,0,1-1.976,3.538A8.569,8.569,0,0,1,1250.556,3343Zm.812-14.14a4.478,4.478,0,0,1-2.743-1.367,6.474,6.474,0,0,1-1.837-4.821c0-3.156,2.26-3.866,3.052-3.866.05,0,.1,0,.148,0a4.366,4.366,0,0,1,3.15,1.708,6.584,6.584,0,0,1,1.529,4.248c0,3.24-2.079,4.1-3.179,4.1A1.128,1.128,0,0,1,1251.368,3328.857Z" transform="translate(-1233.61 -3307.83)" fill="#df4a32"/>
</svg>
