<svg xmlns="http://www.w3.org/2000/svg" width="45.641" height="45.959" viewBox="0 0 45.641 45.959">
  <path id="Twitter" d="M1321.74,3354.17a22.591,22.591,0,0,1-16.136-6.73,23.093,23.093,0,0,1,0-32.5,22.708,22.708,0,0,1,32.272,0,23.093,23.093,0,0,1,0,32.5A22.591,22.591,0,0,1,1321.74,3354.17Zm-14.531-13.22h0a15.111,15.111,0,0,0,9.3,2.839,16.991,16.991,0,0,0,12.51-5.009,19.085,19.085,0,0,0,5.2-13.386,9.915,9.915,0,0,0,3-3.142,12.651,12.651,0,0,1-2.93.918l-.04.01c-.191.047-.357.087-.481.119a7.623,7.623,0,0,0,2.7-3.44,26.371,26.371,0,0,1-4.051,1.5,5.4,5.4,0,0,0-4.5-1.945,5.727,5.727,0,0,0-5.006,2.488,6.288,6.288,0,0,0-1,4.99,15.29,15.29,0,0,1-8.445-2.718,22.426,22.426,0,0,1-4.158-3.568,5.374,5.374,0,0,0-.748,4.314,6.4,6.4,0,0,0,2.4,3.766h-.015a5.093,5.093,0,0,1-2.537-.748c-.092,4.351,3.464,5.754,4.8,6.282a3.14,3.14,0,0,1-1.125.163,8.36,8.36,0,0,1-1.574-.163,6.437,6.437,0,0,0,5.7,4.339,11.7,11.7,0,0,1-7.358,2.518A9.481,9.481,0,0,1,1307.209,3340.95Z" transform="translate(-1298.92 -3308.21)" fill="#00abf1"/>
</svg>
