<svg xmlns="http://www.w3.org/2000/svg" width="45.983" height="45.653" viewBox="0 0 45.983 45.653">
  <path id="YouTube" d="M1364.016,3330.992a22.992,22.992,0,1,1,22.991,22.827A22.909,22.909,0,0,1,1364.016,3330.992Zm10.229,1.278v8.85a3.678,3.678,0,0,0,3.82,3.829h17.888a3.678,3.678,0,0,0,3.817-3.829v-8.81a3.71,3.71,0,0,0-3.817-3.869h-17.888A3.679,3.679,0,0,0,1374.245,3332.27Zm15.262-6.732c0,1.224.677,1.835,1.553,1.835.544,0,.716-.321,1-.958v.754h1.337v-7.6h-1.372v4.857a4.063,4.063,0,0,1-.077.948q-.135.491-.546.492c-.252,0-.424-.152-.51-.454a4.062,4.062,0,0,1-.068-.875v-4.969h-1.318Zm-4.847-4.954a12.889,12.889,0,0,0,0,5.567,2.029,2.029,0,0,0,2.008,1.222c.885,0,1.237-.405,1.539-1.218a13.135,13.135,0,0,0,0-5.572,1.9,1.9,0,0,0-3.547,0Zm-4.063,2.292v4.293h1.276v-4.293l2.219-5.834h-1.572l-1.173,3.811-1.189-3.811h-1.617Zm7.687,17.444v.791h-1.291V3331h1.237v3.19a1.328,1.328,0,0,1,1.271-.843c.691,0,.944.488,1.154,1.462a13.633,13.633,0,0,1,.162,2.556,12.6,12.6,0,0,1-.175,2.523c-.224.95-.479,1.426-1.17,1.426A1.221,1.221,0,0,1,1388.284,3340.32Zm-.027-4.341c-.018.157-.025.712-.025,1.667a12.153,12.153,0,0,0,.045,1.38c.089.561.389.843.743.843.329,0,.447-.344.521-1.033.016-.147.026-.637.026-1.485,0-.876-.008-1.373-.02-1.495-.071-.695-.194-1.04-.527-1.04C1388.65,3334.815,1388.34,3335.2,1388.257,3335.979Zm4.289,4.449a2.591,2.591,0,0,1-.471-1.4c-.031-.321-.006-.93-.006-1.823,0-.719.015-1.229.047-1.534a3.2,3.2,0,0,1,.4-1.41,1.793,1.793,0,0,1,1.631-.791,1.41,1.41,0,0,1,1.384.853,4.4,4.4,0,0,1,.406,2.4v.575h-2.543c-.01.083-.016.642-.016.88a10.432,10.432,0,0,0-.008,1.205.842.842,0,0,0,.768.74c.456,0,.483-.5.483-1.483h1.278c0,.035,0,.084,0,.147s0,.113,0,.146c0,.874,0,1.231-.325,1.628a1.836,1.836,0,0,1-1.509.6A1.674,1.674,0,0,1,1392.546,3340.427Zm1.051-5.322a2.24,2.24,0,0,0-.148,1.064l.006.1c0,.074,0,.145,0,.214h1.316v-.319a3.129,3.129,0,0,0-.093-.927.56.56,0,0,0-.571-.437A.536.536,0,0,0,1393.6,3335.106Zm-11.723,4.382v-5.941h1.31v4.941a7.247,7.247,0,0,0-.05.87.775.775,0,0,0,.627.57c.268,0,.533-.283.621-.609a3.987,3.987,0,0,0,.077-.941v-4.83h1.283v7.564h-1.21v-1.227c-.28.634-.811,1.269-1.351,1.269C1382.312,3341.153,1381.874,3340.7,1381.874,3339.488Zm-2.517,1.662v-7.615h-1.318v-1.268h3.844v1.268h-1.275v7.615Zm6.415-16.144c-.011-.083-.02-.6-.02-1.538v-.7a11.38,11.38,0,0,1,.042-1.281c.086-.507.294-.761.634-.761s.565.29.649.867c.021.156.03.621.03,1.393v.741c0,.823-.007,1.3-.022,1.426q-.126.873-.663.873C1386.059,3326.023,1385.842,3325.686,1385.772,3325.006Z" transform="translate(-1364.016 -3308.165)" fill="#c4302a"/>
</svg>
